<?xml version="1.0" encoding="utf-8"?>
<!-- Generator: Adobe Illustrator 27.5.0, SVG Export Plug-In . SVG Version: 6.00 Build 0)  -->
<svg version="1.1" id="Capa_1" xmlns="http://www.w3.org/2000/svg" xmlns:xlink="http://www.w3.org/1999/xlink" x="0px" y="0px"
	 viewBox="0 0 2122 2122" style="enable-background:new 0 0 2122 2122;" xml:space="preserve">
<path style="fill:#321C27;" d="M1783.4,1011.065c-11.537-76.955-36.849-151.283-72.607-220.309
	c-34.939-67.442-79.775-129.669-133.352-183.558c-16.882-16.98-34.706-33.052-53.211-48.309c4.812-6.089,9.645-12.162,14.684-18.067
	c0.532-0.624,1.015-1.265,1.445-1.926c39.218,21.067,78.85,41.824,119.115,60.727c20.64,9.69,43.514,16.156,65.41,6.412
	c20.313-9.04,27.41-31.298,33.353-51.041c23.256-77.251,9.165-165.337-36.068-232.009c-11.581-17.07-25.532-31.193-39.419-46.27
	c-2.811-3.052-5.61-6.386-7.178-10.281c-2.127-5.285-1.102-11.234-1.486-16.778c-0.719-10.393-4.78-19.833-12.045-27.359
	c-14.794-15.326-36.214-17.551-54.693-8.225c-3.906,1.971-7.171,4.23-11.617,3.155c-5.759-1.393-11.312-3.95-16.984-5.686
	c-11.813-3.615-23.898-6.271-36.13-8.002c-12.537-1.775-25.098-2.722-37.763-2.653c-7.57,0.041-11.37,5.927-11.399,11.811
	c-0.017,3.549,1.366,7.069,4.099,9.334c1.828,1.514,4.241,2.483,7.3,2.466c22.985-0.125,45.625,3.073,67.616,9.812
	c7.872,2.412,15.602,5.941,23.683,6.658c3.13,0.278,6.309,0.172,9.576-0.641c4.145-1.03,7.995-3.32,11.907-5.29
	c3.797-1.912,7.653-3.524,11.896-3.372c6.384,0.228,12.815,3.486,16.893,8.498c1.191,1.463,1.996,2.988,2.599,4.55
	c2.091,5.422,1.296,11.377,1.808,17.5c1.397,16.701,12.053,28.02,23.034,39.209c2.212,2.254,4.43,4.506,6.595,6.792
	c1.122,1.184,2.233,2.376,3.313,3.587c47.856,53.667,69.53,129.895,59.65,200.876c-2.545,18.279-7.292,36.338-13.968,53.538
	c-3.053,7.864-6.775,15.179-14.869,18.71c-7.01,3.059-15.258,3.16-22.626,1.576c-10.41-2.238-19.909-6.846-29.372-11.572
	c-10.179-5.084-20.348-10.189-30.512-15.303c-20.378-10.255-40.718-20.59-60.936-31.158c-40.04-20.93-79.63-42.783-117.971-66.703
	c-37.417-23.343-74.8-48.269-107.887-77.549c-15.084-13.349-29.104-28.071-39.41-45.482c-2.191-3.702-5.34-8.268-5.403-12.748
	c-0.059-4.254,3.321-8.313,5.794-11.495c1.282-1.65,2.702-3.196,4.042-4.804c32.926,45.943,73.663,85.639,120.689,117.14
	c12.659,8.48,24.492-11.964,11.917-20.387c-45.474-30.463-85.068-69.459-116.319-114.391c12.31-12.001,25.973-22.564,40.589-31.597
	c17.702-10.939,36.791-19.629,56.761-25.531c9.462-2.796,19.081-4.969,28.807-6.612c2.424-0.41,4.424-1.825,5.893-3.721
	c2.095-2.706,3.039-6.388,2.536-9.648c-0.059-0.386-0.082-0.783-0.184-1.153c-1.831-6.664-8.213-9.312-14.522-8.245
	c-42.699,7.216-82.751,25.702-116.732,52.403c-16.807,13.206-32.194,28.612-44.82,45.892c-7.525,10.299-10.183,22.413-5.519,34.536
	c4.172,10.846,11.034,20.613,18.098,29.753c13.763,17.805,30.41,32.907,47.963,46.89c15.516,12.36,31.492,24.148,47.772,35.488
	c-4.647,5.355-9.292,10.71-13.939,16.065c-10.823-5.078-21.766-9.899-32.824-14.459c-5.421-2.236-11.791,1.875-13.99,6.912
	c-0.193,0.441-0.408,0.879-0.532,1.332c-1.863,6.78,2.326,12.082,8.245,14.522c134.411,55.43,248.463,156.904,323.797,280.768
	c38.982,64.096,68.781,133.641,86.05,206.722c17.977,76.074,21.647,154.779,14.089,232.472
	c-14.653,150.64-73.453,295.973-175.215,408.765c-53.046,58.796-114.68,110.613-183.404,150.131
	c-67.011,38.532-140.317,65.636-216.229,80.189c-155.886,29.883-320.847,2.474-459.613-74.256
	c-16.885-9.337-33.349-19.402-49.401-30.105c-7.102-4.735-13.934-0.399-16.361,5.804c-0.753,1.926-1.047,4.028-0.826,6.099
	c-13.662,26.369-28.305,52.208-43.861,77.498c-4.635,7.536-9.331,15.035-14.132,22.47c-1.369,2.12-1.795,4.6-1.518,7.021
	c0.425,3.696,2.533,7.248,5.753,9.131c5.722,3.347,12.684,1.136,16.152-4.235c19.934-30.874,38.406-62.658,55.456-95.212
	c4.278,2.721,8.587,5.394,12.924,8.021c-13.126,27.596-25.709,55.721-40.921,82.169c-14.19,24.671-33.263,48.047-61.964,55.461
	c-24.922,6.437-49.665-2.95-59.789-27.52c-2.917-7.077-4.476-14.311-4.99-21.585c-0.243-3.434-0.256-6.879-0.059-10.32
	c1.031-18.015,7.661-35.959,15.489-52.12c16.635-34.344,35.722-67.652,53.924-101.219c8.635,7.187,17.368,14.254,26.27,21.116
	c2.815,2.17,6.578,2.114,9.882,0.816c2.628-1.032,4.972-2.833,6.27-5.051c3.565-6.094,0.831-12.246-4.235-16.152
	c-100.42-77.417-181.38-180.766-230.915-297.588c-49.541-116.835-65.354-245.971-44.59-371.214
	c20.748-125.151,74.557-244.94,154.754-343.297c82.565-101.261,191.911-177.624,315.448-220.234
	c39.707-13.695,80.614-23.985,122.089-30.81c57.395-9.444,115.881-12.141,173.852-7.755c30.87,2.335,61.595,6.612,91.919,13.038
	c15.969,3.384,31.806,7.348,47.501,11.829c6.564,1.874,11.417-1.683,13.483-6.542c2.54-5.975,0.851-13.925-7.206-16.225
	c-34.385-9.817-69.469-16.918-104.874-21.502c0.075-13.815,0.564-27.622,1.496-41.406c9.715-0.966,19.364-3.999,26.537-10.887
	c5.425-5.21,8.509-11.884,10.851-18.912c4.779-14.345,3.246-30.335,3.187-45.219c-0.063-15.827,0.739-31.938-0.377-47.729
	c-1.189-16.814-8.783-30.961-24.215-38.722c-16.026-8.061-34.852-7.769-52.361-8.574c-36.717-1.687-73.485-1.938-110.223-0.845
	c-10.107,0.301-13.464,10.875-10.095,17.771c1.684,3.448,5.021,5.991,10.095,5.84c29.39-0.875,58.799-0.897,88.189,0.001
	c9.352,0.286,18.713,0.663,28.066,1.139c4.746,0.242,9.494,0.459,14.23,0.804c4.881,0.356,10.359,0.957,15.453,2.454
	c5.616,1.651,10.764,4.397,14.078,9.247c3.018,4.415,3.217,10.016,3.348,15.179c0.181,7.131,0.084,14.279,0.112,21.412
	c0.058,14.54,0.308,29.093,0.156,43.632c-0.061,5.885-0.451,11.385-2.302,17.011c-0.346,1.051-0.746,2.083-1.093,3.133
	c-0.008,0.024-0.02,0.054-0.029,0.08c-0.276,0.594-0.547,1.19-0.861,1.767c-0.229,0.419-1.107,1.719-1.315,2.107
	c-0.641,0.749-1.324,1.468-2.067,2.112c-0.158-0.039-2.958,1.817-2.693,1.692c-1.284,0.603-4.403,1.457-6.421,1.796
	c-11.829,1.985-25.122,0.499-37.078,0.52c-18.071,0.031-36.142,0.042-54.213,0.007c-36.089-0.071-72.383,0.49-108.437-1.388
	c-10.226-0.532-21.604-2.014-24.82-13.302c-3.958-13.895-3.355-29.829-3.773-44.163c-0.229-7.838-0.301-15.681-0.221-23.522
	c0.074-7.213-0.701-15.518,0.98-22.566c2.322-9.737,15.308-12.327,23.583-14.496c5.751-1.507,8.258-5.919,8.34-10.495
	c0.128-7.111-5.652-14.622-14.617-12.272c-11.431,2.996-23.645,7.018-31.911,15.932c-10.776,11.622-9.792,27.858-9.974,42.659
	c-0.203,16.507,0.278,33.023,1.443,49.49c1.032,14.594,1.86,30.117,11.872,41.724c6.656,7.718,15.73,11.517,25.588,13.397
	c0.893,15.439,1.01,30.906,0.349,46.357c-29.357,4.514-58.468,10.635-87.092,18.539c-46.109,12.731-90.813,29.945-133.455,51.174
	c-5.999-8.2-11.999-16.4-17.998-24.6c7.433-5.114,14.847-10.258,22.172-15.532c16.721-12.039,33.154-24.629,48.205-38.728
	c14.168-13.271,30.199-28.969,38.207-46.931c4.264-9.565,5.622-20.143,1.827-30.121c-3.51-9.228-9.992-16.663-16.936-23.511
	c-14.439-14.241-29.179-28.342-45.009-41.04c-32.73-26.253-69.753-42.97-111.362-49.075c-20.609-3.023-41.373-4.098-62.191-3.637
	c-21.037,0.466-41.51,2.437-61.705,8.646c-7.826,2.406-15.479,5.28-23.049,8.373c-6.487-5.836-13.727-10.802-21.967-13.851
	c-10.399-3.848-22.779-3.076-32.145,3.114c-8.888,5.875-15.06,14.925-18.109,25.076c-3.331,11.09-2.667,22.876-1.465,34.227
	c0.515,4.862,3.374,9.586,7.943,11.193c1.184,0.417,2.455,0.675,3.863,0.612c5.838-0.261,12.502-5.229,11.805-11.805
	c-0.498-4.707-0.947-9.426-1.005-14.162c-0.026-2.173,0.026-4.347,0.193-6.515c0.035-0.451,0.179-1.564,0.209-1.889
	c0.141-0.823,0.281-1.647,0.465-2.463c0.417-1.858,1.006-3.614,1.619-5.404c0.164-0.345,0.325-0.691,0.5-1.031
	c0.392-0.761,0.809-1.51,1.256-2.241l1.236-1.869l0.447-0.525c0.56-0.629,1.147-1.233,1.759-1.811l0.83-0.738
	c0.564-0.366,1.117-0.746,1.702-1.084c0.03-0.018,0.056-0.038,0.087-0.055l0.955-0.513l0.959-0.292l1.203-0.367l0.794-0.176
	l2.617-0.047c0.589,0.023,1.175,0.07,1.762,0.134c0.562,0.161,1.145,0.388,1.538,0.499c0.166,0.047,1.181,0.377,1.884,0.6
	c0.381,0.188,1.752,0.764,1.979,0.881c1.026,0.523,2.031,1.086,3.017,1.682c1.524,0.923,2.979,1.951,4.412,3.008
	c0.274,0.223,0.741,0.595,1.057,0.848c0.139,0.111,0.256,0.204,0.291,0.234c0.775,0.655,1.536,1.325,2.285,2.008
	c1.591,1.447,3.11,2.966,4.607,4.508c0.004,0.005,0.008,0.01,0.013,0.014c0.011,0.012,0.025,0.02,0.036,0.033
	c0.109,0.112,0.227,0.216,0.336,0.329c0.112,0.116,0.253,0.197,0.37,0.307c0.403,0.372,0.808,0.735,1.247,1.031
	c0.31,0.212,0.646,0.375,0.976,0.555c0.283,0.149,0.556,0.319,0.849,0.441c3.434,1.515,7.602,1.385,10.845-0.481
	c0.006-0.003,0.013-0.004,0.02-0.007c17.465-7.516,36.415-14.195,55.445-16.106c1.794-0.18,3.607-0.266,5.408-0.413
	c16.675-1.355,33.628-1.374,50.28-0.523c37.119,1.897,73.955,10.331,105.742,30.195c13.115,8.195,25.113,17.901,36.634,28.167
	c2.374,2.115,4.756,4.223,7.092,6.381c5.489,5.07,10.861,10.265,16.234,15.458c-36.392,37.072-76.614,70.047-120.24,98.274
	c-12.714,8.225-0.891,28.673,11.917,20.387c45.022-29.129,86.811-63.147,124.419-101.369c0.737,1.222,1.41,2.478,1.926,3.811
	c2.87,7.421-2.16,15.065-6.269,20.935c-5.178,7.395-11.302,14.198-17.533,20.712c-12.844,13.426-27.095,25.5-41.927,36.667
	c-63.721,47.976-133.272,88.446-203.372,126.263c-35.24,19.011-70.827,37.42-106.644,55.32
	c-11.824,5.909-31.121,15.787-43.603,6.349c-5.655-4.277-8.494-11.65-10.64-18.148c-2.73-8.268-4.935-16.741-6.893-25.222
	c-15.799-68.444-7.051-141.276,29.44-201.821c4.733-7.852,9.883-15.43,15.346-22.791c3.353-4.518,1.442-11.307-2.537-14.888
	c-0.533-0.48-1.098-0.913-1.698-1.264c-6.013-3.517-12.341-0.901-16.152,4.235c-47.233,63.645-63.805,143.423-51.393,221.174
	c5.406,33.864,14.731,89.181,60.063,85.809c20.424-1.519,38.762-12.398,56.634-21.464c19.418-9.851,38.789-19.798,58.069-29.919
	c17.485-9.178,34.899-18.529,52.22-28.055c6.362,10.291,12.724,20.582,19.085,30.874c0.059,0.096,0.143,0.174,0.206,0.269
	c-21.109,17.989-41.253,37.168-60.167,57.623C436.695,725.318,373.075,845.788,343.832,974.1
	c-29.285,128.495-22.823,262.987,21.145,387.396c42.565,120.436,116.902,228.961,212.271,313.78
	c-18.464,34.228-37.852,68.148-55.029,103.031c-15.302,31.077-26.61,66.616-15.027,100.883
	c10.637,31.464,38.703,52.456,72.458,50.167c34.827-2.362,62.455-23.57,82.197-51.121c11.111-15.506,19.604-32.679,27.916-49.789
	c8.167-16.811,16.311-33.633,24.461-50.453c56.047,31.443,116.393,55.288,178.774,70.638
	c79.062,19.454,161.567,25.604,242.562,16.955c80.037-8.547,158.081-30.574,230.894-64.87c13.704-6.455,27.151-13.365,40.342-20.697
	c6.924,14.924,12.522,30.408,19.469,45.329c7.603,16.33,15.856,32.641,25.616,47.796c19.623,30.473,48.355,56.034,85.826,59.41
	c32.455,2.923,61.307-17.216,74.74-45.994c14.593-31.265,12.545-65.607,0.373-97.353c-7.695-20.069-18.238-38.75-29.333-57.1
	c-11.241-18.591-22.594-37.114-33.905-55.662c4.967-4.528,9.902-9.094,14.766-13.74c60.857-58.134,112.552-125.64,149.432-201.444
	c33.33-68.509,55.842-142.191,67.69-217.408C1793.609,1166.795,1794.976,1088.276,1783.4,1011.065z"/>
<path style="fill:#B3B3B3;" d="M1505.854,544.236c4.432-5.643,8.942-11.223,13.558-16.718
	c-36.319-19.853-72.034-40.838-106.515-63.744c-3.928,4.528-7.856,9.056-11.785,13.583
	C1437.943,496.382,1472.981,518.897,1505.854,544.236z"/>
<path style="fill:#D6D6D6;" d="M1683.774,311.8c-1.08-1.211-2.191-2.402-3.313-3.587c5.906,12.429,6.637,26.225,6.823,39.91
	c0.225,16.636-0.742,33.285-3.518,49.703c-5.118,30.291-17.529,59.274-38.876,81.676c-6.339,6.652-16.394-3.435-10.071-10.071
	c18.986-19.925,29.72-45.524,34.676-72.349c2.791-15.106,3.651-30.519,3.576-45.861c-0.065-13.272,0.14-27.338-6.598-39.21
	c-3.306-5.826,2.337-11.185,7.393-10.59c-10.981-11.189-21.636-22.508-23.034-39.209c-0.512-6.123,0.283-12.078-1.808-17.5
	c-0.103,0.253-0.186,0.507-0.318,0.758c-0.815,1.541-2.605,2.818-4.256,3.273c-1.669,0.46-4.014,0.277-5.487-0.718
	c-0.769-0.518-1.599-0.918-2.425-1.327c-1.139-0.423-2.308-0.733-3.501-0.958c-1.265-0.108-2.529-0.106-3.793,0.005
	c-1.354,0.263-2.696,0.563-3.978,1.091l0.146-0.062c-3.474,1.517-7.217,0.628-9.347-2.676c-0.975-1.513-1.187-3.783-0.717-5.487
	c0.342-1.246,1.205-2.649,2.289-3.576c-3.912,1.97-7.762,4.26-11.907,5.29c-3.267,0.812-6.446,0.919-9.576,0.641
	c2.065,0.898,4.12,1.807,6.112,2.767c83.94,40.445,59.311,194.608,0.25,221.688c-26.99,12.375-278.285-146.913-255.37-182.607
	c5.355-8.341,12.131-15.786,20.035-22.363c-14.616,9.033-28.279,19.596-40.589,31.597c31.252,44.932,70.845,83.928,116.319,114.391
	c12.575,8.423,0.742,28.867-11.917,20.387c-47.026-31.502-87.763-71.197-120.689-117.14c-1.341,1.607-2.76,3.154-4.042,4.804
	c-2.473,3.182-5.853,7.242-5.794,11.495c0.063,4.481,3.212,9.047,5.403,12.748c10.306,17.411,24.326,32.133,39.41,45.482
	c33.087,29.281,70.47,54.206,107.887,77.549c38.341,23.92,77.931,45.773,117.971,66.703c20.219,10.568,40.558,20.903,60.936,31.158
	c10.164,5.114,20.333,10.219,30.512,15.303c9.463,4.726,18.963,9.334,29.372,11.572c7.368,1.583,15.616,1.483,22.626-1.576
	c8.094-3.532,11.816-10.847,14.869-18.71c6.676-17.2,11.424-35.259,13.968-53.538C1753.303,441.695,1731.629,365.466,1683.774,311.8
	z"/>
<path style="fill:#D6D6D6;" d="M1458.641,224.586c4.533-0.619,9.099-1.139,13.699-1.531c-3.882-1.483-6.173-4.887-6.828-8.663
	c-1.449,0.162-2.89,0.36-4.335,0.546C1461.68,218.198,1460.736,221.88,1458.641,224.586z"/>
<path style="fill:#D6D6D6;" d="M1482.481,222.385c5.014-0.245,10.042-0.37,15.072-0.354c-2.733-2.265-4.116-5.785-4.099-9.334
	c-1.807,0.015-3.604,0.095-5.407,0.145C1487.824,216.704,1485.967,220.409,1482.481,222.385z"/>
<path style="fill:#EDEDED;" d="M1476.707,223.867c-1.645,0-3.078-0.32-4.367-0.812c-4.6,0.392-9.166,0.911-13.699,1.531
	c-1.469,1.897-3.469,3.311-5.893,3.721c-9.726,1.644-19.345,3.816-28.807,6.612c-19.971,5.902-39.06,14.592-56.761,25.531
	c-7.904,6.577-14.681,14.022-20.035,22.363c-22.914,35.694,228.381,194.982,255.37,182.607
	c59.06-27.079,83.689-181.243-0.25-221.688c-1.993-0.96-4.047-1.869-6.112-2.767c-8.082-0.717-15.811-4.246-23.683-6.658
	c-21.991-6.739-44.63-9.937-67.616-9.812c-3.059,0.017-5.472-0.951-7.3-2.466c-5.03-0.016-10.057,0.108-15.072,0.354
	C1480.885,223.289,1478.988,223.867,1476.707,223.867z"/>
<path style="fill:#EDEDED;" d="M1615.346,238.612c-0.47,1.705-0.259,3.975,0.717,5.487c2.13,3.304,5.873,4.193,9.347,2.676
	l-0.146,0.062c1.283-0.528,2.625-0.828,3.978-1.091c1.264-0.111,2.528-0.113,3.793-0.005c1.193,0.225,2.362,0.535,3.501,0.958
	c0.827,0.409,1.656,0.808,2.425,1.327c1.474,0.995,3.818,1.178,5.487,0.718c1.651-0.454,3.441-1.732,4.256-3.273
	c0.132-0.251,0.215-0.505,0.318-0.758c-0.603-1.563-1.408-3.087-2.599-4.55c-4.077-5.012-10.508-8.27-16.893-8.498
	c-4.243-0.152-8.098,1.46-11.896,3.372C1616.552,235.963,1615.689,237.366,1615.346,238.612z"/>
<path style="fill:#B3B3B3;" d="M712.404,484.869c-5.466-7.471-10.932-14.942-16.399-22.414
	c-35.269,23.383-71.566,45.207-108.461,65.971c5.67,9.172,11.34,18.345,17.01,27.517
	C638.307,529.072,674.441,505.322,712.404,484.869z"/>
<path style="fill:#D6D6D6;" d="M803.798,326.047c-0.515-1.333-1.189-2.589-1.926-3.811c-37.609,38.222-79.397,72.24-124.419,101.369
	c-12.807,8.286-24.63-12.162-11.917-20.387c43.626-28.227,83.848-61.202,120.24-98.274c-5.373-5.193-10.745-10.388-16.234-15.458
	c-2.336-2.158-4.718-4.266-7.092-6.381c21.45,36.235-228.594,194.66-255.515,182.317c-59.06-27.079-83.69-181.243,0.25-221.688
	c18.324-8.829,39.86-15.01,62.607-18.468c-1.801,0.147-3.614,0.233-5.408,0.413c-19.03,1.911-37.98,8.59-55.445,16.106
	c-0.007,0.003-0.013,0.004-0.02,0.007c-3.243,1.866-7.41,1.996-10.845,0.481c-0.293-0.122-0.566-0.292-0.849-0.441
	c-0.33-0.18-0.666-0.343-0.976-0.555c-0.438-0.296-0.844-0.659-1.247-1.031c-0.117-0.11-0.259-0.191-0.37-0.307
	c-0.109-0.113-0.227-0.217-0.336-0.329c-0.011-0.012-0.025-0.02-0.036-0.033c0.186,1.534-0.072,3.278-0.875,4.523
	c-2.13,3.304-5.872,4.193-9.347,2.676l0.146,0.062c-1.282-0.528-2.625-0.828-3.978-1.091c-1.264-0.111-2.528-0.113-3.793-0.005
	c-1.193,0.225-2.362,0.535-3.501,0.958c-0.827,0.409-1.656,0.808-2.425,1.327c-1.473,0.995-3.818,1.178-5.487,0.718
	c-1.651-0.454-3.441-1.732-4.256-3.273c-1.901-3.596-0.749-7.516,2.554-9.744c4.018-2.708,8.785-4.053,13.583-4.376
	c3.472-0.233,6.917,0.343,10.184,1.461c-0.316-0.252-0.783-0.624-1.057-0.848c-1.433-1.057-2.889-2.086-4.412-3.008
	c-0.986-0.597-1.991-1.159-3.017-1.682c-0.227-0.116-1.598-0.693-1.979-0.881c-0.702-0.223-1.718-0.553-1.884-0.6
	c-0.393-0.111-0.976-0.339-1.538-0.499c-0.586-0.064-1.172-0.111-1.762-0.134l-2.617,0.047l-0.794,0.176l-1.203,0.367
	c-0.68,0.262-1.346,0.55-2.001,0.861c-0.584,0.338-1.137,0.718-1.702,1.084l-0.83,0.738c-0.612,0.578-1.199,1.182-1.759,1.811
	l-0.447,0.525l-1.236,1.869c-0.447,0.731-0.864,1.479-1.256,2.241c-0.175,0.339-0.336,0.686-0.5,1.031
	c-0.613,1.79-1.202,3.546-1.619,5.404c-0.183,0.816-0.324,1.639-0.465,2.463c-0.031,0.325-0.175,1.438-0.209,1.889
	c-0.166,2.167-0.219,4.341-0.193,6.515c0.058,4.736,0.506,9.455,1.005,14.162c0.697,6.577-5.967,11.544-11.805,11.805
	c-1.408,0.063-2.679-0.195-3.863-0.612c-2.5,2.183-4.914,4.434-7.314,6.696c7.431,5.984,5.041,21.225-7.172,21.225
	c-4.213,0-7.215-1.84-9.092-4.457c-2.457,2.768-4.855,5.573-7.181,8.427c3.979,3.581,5.89,10.371,2.537,14.888
	c-5.462,7.361-10.613,14.939-15.346,22.791c-36.49,60.545-45.239,133.377-29.44,201.821c1.958,8.481,4.163,16.954,6.893,25.222
	c2.146,6.497,4.985,13.87,10.64,18.148c12.482,9.438,31.779-0.44,43.603-6.349c35.817-17.9,71.405-36.309,106.644-55.32
	c70.1-37.817,139.651-78.287,203.372-126.263c14.832-11.167,29.084-23.241,41.927-36.667c6.231-6.515,12.355-13.318,17.533-20.712
	C801.638,341.112,806.667,333.468,803.798,326.047z"/>
<path style="fill:#EDEDED;" d="M506.935,465.422c26.92,12.343,276.965-146.082,255.515-182.317
	c-11.521-10.266-23.519-19.972-36.634-28.167c-31.787-19.864-68.623-28.297-105.742-30.195c-16.653-0.852-33.606-0.832-50.28,0.523
	c-22.747,3.459-44.283,9.639-62.607,18.468C423.246,284.179,447.875,438.342,506.935,465.422z"/>
<path style="fill:#EDEDED;" d="M463.3,235.727c-3.304,2.228-4.455,6.148-2.554,9.744c0.814,1.541,2.604,2.818,4.256,3.273
	c1.669,0.46,4.014,0.277,5.487-0.718c0.769-0.518,1.599-0.918,2.425-1.327c1.139-0.423,2.309-0.733,3.501-0.958
	c1.265-0.108,2.529-0.106,3.793,0.005c1.354,0.263,2.696,0.563,3.978,1.091l-0.146-0.062c3.475,1.517,7.217,0.628,9.347-2.676
	c0.803-1.245,1.061-2.989,0.875-4.523c-0.005-0.004-0.008-0.01-0.013-0.014c-1.497-1.542-3.016-3.061-4.607-4.508
	c-0.749-0.683-1.51-1.354-2.285-2.008c-0.035-0.03-0.152-0.123-0.291-0.234c-3.267-1.118-6.712-1.695-10.184-1.461
	C472.085,231.674,467.318,233.019,463.3,235.727z"/>
<path style="fill:#B3B3B3;" d="M1141.63,398.766c0.083-8.813,0.357-17.619,0.79-26.421H977.907
	c0.251,9.533,0.203,19.069-0.137,28.602C1032.122,394.324,1087.163,393.492,1141.63,398.766z"/>
<path style="fill:#828282;" d="M1143.042,360.738c-29.419,0.407-58.93-0.206-88.306-0.331c-21.069-0.09-42.14-0.235-63.206-0.641
	c-4.472-0.086-9.248-0.042-14.129-0.082c0.227,4.219,0.396,8.439,0.506,12.661h164.513
	C1142.611,368.475,1142.785,364.604,1143.042,360.738z"/>
<path style="fill:#CCCCCC;" d="M543.341,1880.557c-9.566-5.054-15.606-15.179-17.15-25.875c0.514,7.275,2.073,14.508,4.99,21.585
	c10.124,24.57,34.867,33.957,59.789,27.52c28.701-7.414,47.774-30.79,61.964-55.461c15.212-26.448,27.795-54.573,40.921-82.169
	c-4.336-2.627-8.646-5.3-12.924-8.021c-17.05,32.553-35.522,64.338-55.456,95.212c-3.468,5.371-10.43,7.582-16.152,4.235
	c-3.22-1.883-5.328-5.435-5.753-9.131c-3.701,6.509-7.516,12.962-11.51,19.331C581.479,1884.651,560.855,1889.81,543.341,1880.557z"
	/>
<path style="fill:#CCCCCC;" d="M621.815,1712.139c-8.901-6.862-17.634-13.929-26.27-21.116
	c-18.203,33.567-37.289,66.875-53.924,101.219c-7.828,16.161-14.458,34.105-15.489,52.12c0.612-4.434,2.05-8.721,4.435-12.522
	c15.762-25.126,29.502-51.448,41.139-78.729c1.789-4.535,4.19-8.711,7.697-12.243c2.402-1.856,4.804-3.712,7.207-5.568
	c8.091-5.216,18.323-5.665,27.438-3.59c8.489,1.934,16.958,8.978,21.28,16.365c4.115,7.033,6.877,19.516,3.59,27.438
	c-6.115,14.734-12.652,29.222-19.698,43.448c15.555-25.289,30.199-51.129,43.861-77.498c-0.221-2.071,0.072-4.173,0.826-6.099
	c-10.945-7.188-21.687-14.656-32.208-22.41C628.393,1714.252,624.63,1714.308,621.815,1712.139z"/>
<path style="fill:#CCCCCC;" d="M1594.092,1807.32l-51.425-97.327c-3.683-5.886-7.353-11.769-10.995-17.655
	c-9.208,7.927-18.599,15.63-28.144,23.124c5.866-1.249,12.212-1.108,17.48,0.342c8.008,2.206,17.51,8.687,21.28,16.365
	c14.678,29.885,29.356,59.771,44.035,89.655c4.406,8.971,5.805,17.712,3.59,27.438c-2.069,9.079-8.761,16.379-16.364,21.28
	c-7.564,4.877-18.915,5.936-27.438,3.59c-8.008-2.206-17.51-8.688-21.28-16.364c-14.678-29.886-29.357-59.771-44.035-89.656
	c-4.406-8.971-5.805-17.713-3.59-27.438c0.617-2.708,1.684-5.235,3.025-7.61c-7.4,5.372-14.883,10.625-22.474,15.722
	c0.29,0.415,0.599,0.791,0.857,1.27c18.66,34.62,37.32,69.241,55.981,103.862c7.216,13.389-13.175,25.297-20.388,11.917
	c-18.66-34.621-37.32-69.241-55.98-103.862c-0.08-0.148-0.111-0.293-0.184-0.441c-3.59,2.245-7.201,4.458-10.832,6.639
	c7.234,15.597,13.032,31.802,20.417,47.331c7.86,16.531,16.196,33.093,26.355,48.348c16.126,24.217,41.401,46.556,72.311,45.324
	c25.774-1.027,43.31-22.738,49.859-45.988C1601.423,1844.467,1599.563,1825.477,1594.092,1807.32z"/>
<path style="fill:#3466AF;" d="M1750.04,962.365c-17.269-73.081-47.068-142.626-86.05-206.722
	c-75.334-123.865-189.385-225.338-323.797-280.768c-5.919-2.441-10.108-7.742-8.245-14.522c0.125-0.453,0.339-0.891,0.532-1.332
	c-6.168-2.501-12.374-4.928-18.625-7.263c-0.466,0.884-1.027,1.714-1.791,2.424c-1.069,1.151-2.336,1.965-3.8,2.441
	c-1.407,0.739-2.923,1.078-4.549,1.017c-0.623,0-1.246,0-1.87,0c-2.131-0.007-4.117-0.544-5.958-1.612
	c-0.796-0.616-1.593-1.231-2.389-1.846c-1.463-1.473-2.475-3.209-3.036-5.21c-0.141-1.046-0.281-2.092-0.422-3.138
	c-0.032-0.841,0.053-1.65,0.236-2.433c-4.318-1.443-8.649-2.858-13.003-4.222c-2.065,4.859-6.919,8.416-13.483,6.542
	c-15.696-4.481-31.533-8.446-47.501-11.829c-30.324-6.426-61.049-10.703-91.919-13.038
	c137.161,13.181,271.866,66.565,385.311,161.97c295.354,248.387,335.644,687.518,92.187,985.352
	c-2.114,2.587-13.565,11.317-22.835,2.459c-9.269-8.857-4.142-18.905-1.25-22.875c121.248-166.45,161.842-369.088,123.505-557.142
	c-0.054,0.007-0.107,0.014-0.161,0.022c-2.131-0.006-4.117-0.544-5.958-1.612c-0.797-0.615-1.593-1.23-2.389-1.846
	c-1.151-1.069-1.965-2.335-2.441-3.799c-0.739-1.407-1.078-2.923-1.017-4.548c-0.061-1.625,0.278-3.142,1.017-4.549
	c0.476-1.463,1.29-2.73,2.441-3.799c0.935-0.935,1.87-1.87,2.805-2.805c0.147-0.146,0.328-0.234,0.481-0.371
	c-1.187-4.939-2.428-9.865-3.725-14.78c-6.04,2.859-14.337,1.274-16.588-7.036c-9.1-33.597-20.718-66.53-35.061-98.253
	c-50.743-112.226-132.047-210.382-234.063-279.595c-5.401-3.664-6.255-9.549-4.485-14.375
	c-131.298-82.69-297.979-122.209-446.692-118.473c-3.822,0.096-5.575-3.333-4.934-6.188c-41.476,6.825-82.382,17.114-122.089,30.81
	C704.892,502.027,595.546,578.39,512.981,679.652c-80.197,98.358-134.006,218.146-154.754,343.297
	c-20.763,125.243-4.95,254.379,44.59,371.214c49.535,116.822,130.495,220.171,230.915,297.588c5.066,3.906,7.8,10.058,4.235,16.152
	c-1.298,2.219-3.641,4.019-6.27,5.051c10.521,7.754,21.263,15.222,32.208,22.41c2.427-6.203,9.258-10.538,16.361-5.804
	c16.053,10.702,32.516,20.768,49.401,30.105c138.766,76.73,303.728,104.139,459.613,74.256
	c75.913-14.553,149.218-41.656,216.229-80.189c68.724-39.518,130.358-91.335,183.404-150.131
	c101.761-112.792,160.561-258.125,175.215-408.765C1771.687,1117.143,1768.017,1038.439,1750.04,962.365z"/>
<path style="fill:#ECF7FE;" d="M1631.225,944.254c-10.886-30.038-23.987-59.229-38.065-87.895
	c-14.209-28.932-29.753-57.277-47.865-83.969c-60.895-89.741-152.465-157.139-253.2-195.896
	c-25.717-9.895-52.039-17.888-78.727-24.291c76.253,21.756,151.93,60.226,218.305,114.958
	c203.152,167.512,285.842,463.144,158.425,617.669s-443.286,128.59-646.438-38.921C740.509,1078.397,683.45,792.445,810.867,637.92
	c50.344-61.055,126.15-95.339,211.916-104.276c-34.001,1.124-67.928,4.38-101.418,9.723c-5.625,0.897-11.26-1.04-13.736-6.203
	c-22.096,5.688-43.689,12.619-64.746,20.638c0.103,5.983-3.684,12.048-11.384,12.048c-3.97,0-6.877-1.625-8.773-4.001
	c-7.189,3.036-14.288,6.24-21.333,9.539c0.522,4.021-1.018,8.176-5.755,10.682c-11.578,6.126-22.972,12.586-34.147,19.42
	c-90.172,55.139-165.699,133.502-218.407,225.045c-7.256,12.603-14.028,25.446-20.341,38.487
	c-19.537,59.778-30.182,123.57-30.182,189.879c0,14.978,0.565,29.823,1.623,44.531c3.527-1.512,7.409-2.355,11.489-2.355
	c16.122,0,29.191,13.069,29.191,29.191c0,16.122-13.069,29.191-29.191,29.191c-1.679,0-3.315-0.173-4.916-0.445
	c21.082,128.126,81.923,242.846,169.47,331.052c6.236,0.767,12.284,3.421,17.07,8.208c4.446,4.446,7.102,9.974,8.08,15.734
	c90.888,81.789,206.392,136.739,334.061,152.385c4.875-9.319,14.62-15.687,25.865-15.687c12.857,0,23.749,8.324,27.643,19.867
	c7.211,0.252,14.441,0.425,21.713,0.425c171.783,0,326.912-70.866,438.048-184.859c9.406-12.255,18.405-24.826,26.85-37.779
	c63.218-96.959,96.758-211.813,94.593-327.63C1663.021,1060.391,1651.783,1000.978,1631.225,944.254z"/>
<path style="fill:#C1E6FB;" d="M1294.684,1695.491c-2.994-5.118-1.558-13.488,4.235-16.152c11.816-5.434,23.481-11.182,34.963-17.29
	c80.918-43.04,152.991-103.162,208.825-175.909c-111.136,113.992-266.265,184.859-438.048,184.859
	c-7.272,0-14.503-0.173-21.713-0.425c0.989,2.932,1.548,6.06,1.548,9.325c0,16.122-13.069,29.191-29.191,29.191
	c-16.122,0-29.191-13.069-29.191-29.191c0-4.877,1.211-9.464,3.326-13.505c-127.669-15.647-243.173-70.596-334.061-152.385
	c1.53,9.01-1.125,18.594-8.08,25.548c-11.4,11.4-29.882,11.4-41.283,0c-11.399-11.4-11.399-29.883,0-41.283
	c6.613-6.612,15.598-9.267,24.212-8.208c-87.547-88.206-148.388-202.926-169.47-331.052c-13.776-2.341-24.275-14.303-24.275-28.746
	c0-12.042,7.293-22.374,17.702-26.837c-1.058-14.708-1.623-29.553-1.623-44.531c0-66.309,10.645-130.101,30.182-189.879
	c-43.048,88.928-64.094,187.399-61.828,286.481c2.727,119.229,38.553,240.744,108.327,338.197
	c64.461,90.031,162.366,150.905,265.289,187.941c116.872,42.056,247.259,61.655,369.78,34.698
	c5.832-1.283,10.309,1.477,12.733,5.475c4.271-1.127,8.555-2.223,12.789-3.439c0.277-0.08,0.552-0.166,0.829-0.246
	c3.936-1.136,7.825-2.38,11.728-3.593c-0.633-0.986-1.159-2.035-1.486-3.2c-0.141-1.046-0.281-2.092-0.422-3.138
	c0.007-2.131,0.544-4.117,1.612-5.959c0.615-0.796,1.23-1.593,1.846-2.389c1.069-1.151,2.336-1.965,3.799-2.441
	c1.407-0.739,2.923-1.078,4.548-1.017c1.625-0.061,3.142,0.277,4.548,1.017c1.463,0.476,2.73,1.29,3.799,2.441
	c0.935,0.935,1.87,1.87,2.805,2.805c1.159,1.167,1.953,2.548,2.546,4.046c7.676-2.736,15.302-5.575,22.834-8.605
	c0.342-0.138,0.682-0.28,1.024-0.418c1.652-0.668,3.273-1.398,4.918-2.081C1294.738,1695.558,1294.707,1695.531,1294.684,1695.491z"
	/>
<path style="fill:#B3B3B3;" d="M1183.565,263.005c-0.028-7.133,0.068-14.281-0.112-21.412c-0.131-5.164-0.33-10.764-3.348-15.179
	c-3.314-4.85-8.462-7.596-14.078-9.247c8.624,4.639,14.524,13.751,14.524,24.18v45.389c0,12.833-8.941,23.651-20.892,26.611v8.899
	c0,9.982-14.243,9.965-14.243,0v-8.072h-32.717v8.072c0,9.982-14.243,9.965-14.243,0v-8.072h-32.717v8.072
	c0,9.982-14.243,9.965-14.243,0v-8.072h-32.717v8.072c0,9.982-14.243,9.965-14.243,0v-8.559
	c-12.705-2.385-22.401-13.582-22.401-26.951v-45.389c0-15.091,12.347-27.438,27.438-27.438h126.771
	c-9.353-0.476-18.714-0.853-28.066-1.139c-29.39-0.898-58.799-0.876-88.189-0.001c-5.074,0.151-8.411-2.393-10.095-5.84h-9.43
	c-0.647,5.304-4.383,10.16-11.27,10.16c-6.898,0-10.631-4.855-11.271-10.16h-6.72c-0.082,4.577-2.589,8.988-8.34,10.495
	c-8.275,2.169-21.261,4.76-23.583,14.496c-1.681,7.048-0.906,15.353-0.98,22.566c-0.08,7.841-0.008,15.684,0.221,23.522
	c0.418,14.334-0.186,30.268,3.773,44.163c3.216,11.288,14.593,12.77,24.82,13.302c36.053,1.878,72.347,1.316,108.437,1.388
	c18.071,0.035,36.142,0.024,54.213-0.007c11.956-0.021,25.249,1.465,37.078-0.52c2.017-0.338,5.137-1.193,6.421-1.796
	c-0.266,0.125,2.535-1.731,2.693-1.692c0.743-0.644,1.425-1.363,2.067-2.112c0.208-0.388,1.086-1.688,1.315-2.107
	c0.314-0.577,0.585-1.173,0.861-1.767c0.009-0.026,0.021-0.056,0.029-0.08c0.347-1.05,0.748-2.082,1.093-3.133
	c1.85-5.626,2.24-11.126,2.302-17.011C1183.873,292.097,1183.623,277.544,1183.565,263.005z"/>
<path style="fill:#D6D6D6;" d="M982.134,241.346v45.389c0,13.37,9.697,24.566,22.401,26.951v-80.453c0-9.982,14.243-9.966,14.243,0
	v80.939h32.717v-80.939c0-9.982,14.243-9.966,14.243,0v80.939h32.717v-80.939c0-9.982,14.243-9.966,14.243,0v80.939h32.717v-80.939
	c0-9.982,14.243-9.966,14.243,0v80.112c11.952-2.959,20.892-13.778,20.892-26.611v-45.389c0-10.429-5.901-19.541-14.524-24.18
	c-5.095-1.497-10.573-2.098-15.453-2.454c-4.736-0.345-9.484-0.563-14.23-0.804h-126.771
	C994.481,213.908,982.134,226.255,982.134,241.346z"/>
<path style="fill:#828282;" d="M957.576,233.234v89.011c0,9.965,14.243,9.982,14.243,0v-89.011
	C971.818,223.269,957.576,223.253,957.576,233.234z"/>
<path style="fill:#828282;" d="M1018.778,233.234c0-9.966-14.243-9.982-14.243,0v80.453v8.559c0,9.965,14.243,9.982,14.243,0v-8.072
	V233.234z"/>
<path style="fill:#828282;" d="M1065.738,233.234c0-9.966-14.243-9.982-14.243,0v80.939v8.072c0,9.965,14.243,9.982,14.243,0v-8.072
	V233.234z"/>
<path style="fill:#828282;" d="M1112.698,233.234c0-9.966-14.243-9.982-14.243,0v80.939v8.072c0,9.965,14.243,9.982,14.243,0v-8.072
	V233.234z"/>
<path style="fill:#828282;" d="M1145.415,233.234v80.939v8.072c0,9.965,14.243,9.982,14.243,0v-8.899v-80.112
	C1159.658,223.269,1145.415,223.253,1145.415,233.234z"/>
<path style="fill:#4A79BC;" d="M955.452,434.796c148.713-3.736,315.395,35.783,446.692,118.473
	c2.333-6.359,9.234-10.875,16.401-6.012c29.938,20.312,58.34,42.938,84.73,67.689c93.21,87.422,161.827,200.891,195.245,324.27
	c1.724,6.366-1.572,11.131-6.18,13.313c1.297,4.915,2.538,9.841,3.725,14.78c1.373-1.236,2.928-2.161,4.728-2.666
	c1.046-0.14,2.092-0.281,3.139-0.421c2.131,0.006,4.117,0.544,5.958,1.611c0.796,0.615,1.593,1.231,2.389,1.846
	c1.151,1.069,1.965,2.336,2.441,3.8c0.739,1.406,1.078,2.923,1.017,4.548c0.061,1.625-0.278,3.142-1.017,4.549
	c-0.477,1.464-1.29,2.73-2.441,3.8c-0.935,0.934-1.87,1.87-2.805,2.805c-1.473,1.463-3.209,2.475-5.209,3.036
	c-0.993,0.134-1.986,0.267-2.978,0.4c38.337,188.055-2.256,390.692-123.505,557.142c-2.892,3.97-8.019,14.018,1.25,22.875
	c9.27,8.858,20.72,0.128,22.835-2.459c243.456-297.833,203.167-736.964-92.187-985.352
	c-113.445-95.405-248.15-148.789-385.311-161.97c-57.971-4.385-116.457-1.689-173.852,7.755
	C949.877,431.463,951.63,434.892,955.452,434.796z"/>
<path style="fill:#321C27;" d="M1082.946,1670.574c-3.894-11.543-14.786-19.867-27.643-19.867c-11.246,0-20.99,6.368-25.865,15.687
	c-2.115,4.041-3.326,8.628-3.326,13.505c0,16.122,13.069,29.191,29.191,29.191c16.122,0,29.191-13.069,29.191-29.191
	C1084.494,1676.634,1083.934,1673.505,1082.946,1670.574z"/>
<path style="fill:#321C27;" d="M505.672,1101.077c-4.081,0-7.962,0.843-11.489,2.355c-10.408,4.462-17.702,14.795-17.702,26.837
	c0,14.443,10.499,26.404,24.275,28.746c1.601,0.272,3.237,0.445,4.916,0.445c16.122,0,29.191-13.069,29.191-29.191
	C534.863,1114.146,521.794,1101.077,505.672,1101.077z"/>
<path style="fill:#321C27;" d="M695.376,1514.009c-0.978-5.76-3.634-11.289-8.08-15.734c-4.787-4.787-10.834-7.441-17.07-8.208
	c-8.614-1.059-17.599,1.596-24.212,8.208c-11.399,11.4-11.399,29.883,0,41.283c11.4,11.4,29.883,11.4,41.283,0
	C694.251,1532.603,696.906,1523.019,695.376,1514.009z"/>
<path style="fill:#321C27;" d="M1464.591,1498.274c-11.4-11.4-29.883-11.4-41.283,0c-11.4,11.4-11.4,29.883,0,41.283
	s29.882,11.4,41.283,0C1475.991,1528.157,1475.991,1509.674,1464.591,1498.274z"/>
<path style="fill:#321C27;" d="M687.296,720.98c-11.4-11.4-29.882-11.4-41.283,0c-11.399,11.4-11.399,29.883,0,41.283
	c11.4,11.399,29.883,11.399,41.283,0C698.696,750.863,698.696,732.38,687.296,720.98z"/>
<path style="fill:#EDEDED;" d="M1480.795,1768.113c14.678,29.886,29.357,59.771,44.035,89.656
	c3.77,7.676,13.272,14.158,21.28,16.364c8.524,2.347,19.874,1.287,27.438-3.59c7.603-4.901,14.295-12.201,16.364-21.28
	c2.215-9.725,0.816-18.466-3.59-27.438c-14.679-29.885-29.357-59.771-44.035-89.655c-3.77-7.677-13.272-14.159-21.28-16.365
	c-5.268-1.45-11.614-1.591-17.48-0.342c-7.659,6.014-15.423,11.885-23.298,17.602c-1.341,2.375-2.408,4.902-3.025,7.61
	C1474.99,1750.4,1476.39,1759.142,1480.795,1768.113z"/>
<path style="fill:#EDEDED;" d="M635.328,1748.074c-4.322-7.387-12.791-14.431-21.28-16.365c-9.115-2.075-19.347-1.626-27.438,3.59
	c-2.403,1.856-4.805,3.712-7.207,5.568c-3.507,3.531-5.908,7.708-7.697,12.243c-11.637,27.281-25.377,53.603-41.139,78.729
	c-2.384,3.801-3.823,8.088-4.435,12.522c-0.197,3.442-0.184,6.886,0.059,10.32c1.545,10.696,7.584,20.821,17.15,25.875
	c17.513,9.253,38.138,4.094,48.718-12.774c3.995-6.369,7.809-12.822,11.51-19.331c-0.278-2.421,0.149-4.901,1.518-7.021
	c4.8-7.435,9.497-14.934,14.132-22.47c7.046-14.227,13.583-28.714,19.698-43.448C642.205,1767.59,639.443,1755.107,635.328,1748.074
	z"/>
<path style="fill:#EDEDED;" d="M1666.472,312.011c6.737,11.872,6.533,25.939,6.598,39.21c0.076,15.342-0.785,30.755-3.576,45.861
	c-4.956,26.825-15.689,52.424-34.676,72.349c-6.323,6.635,3.733,16.723,10.071,10.071c21.347-22.402,33.758-51.385,38.876-81.676
	c2.775-16.418,3.743-33.066,3.518-49.703c-0.186-13.684-0.917-27.481-6.823-39.91c-2.165-2.286-4.384-4.538-6.595-6.792
	C1668.809,300.826,1663.166,306.185,1666.472,312.011z"/>
<path style="fill:#EDEDED;" d="M1623.404,485.161c-9.165,0-9.18,14.243,0,14.243
	C1632.568,499.405,1632.584,485.161,1623.404,485.161z"/>
<path style="fill:#EDEDED;" d="M478.117,489.534c-33.334-45.725-48.424-103.481-40.406-159.647
	c1.279-8.965-12.443-12.838-13.735-3.787c-8.552,59.917,6.1,121.593,41.842,170.623
	C471.165,504.057,483.528,496.957,478.117,489.534z"/>
<path style="fill:#EDEDED;" d="M484.311,514.635c9.165,0,9.18-14.244,0-14.244C475.146,500.391,475.131,514.635,484.311,514.635z"/>
<path style="fill:#D6D6D6;" d="M1432.651,1503.496c-0.894,1.527-1.272,3.777-0.718,5.487c1.201,3.712,4.898,5.983,8.76,4.975
	l0.318-0.065c0.682-0.057,1.365-0.048,2.047-0.007c0.581,0.121,1.155,0.271,1.718,0.46c0.53,0.267,1.044,0.563,1.539,0.894
	l0.909,0.911c0.293,0.443,0.557,0.904,0.798,1.377c0.198,0.582,0.353,1.174,0.477,1.775c0.038,0.633,0.036,1.268-0.008,1.9
	c-0.121,0.53-0.214,1.067-0.397,1.585c-0.59,1.669-0.151,4.002,0.718,5.488c0.864,1.477,2.557,2.886,4.255,3.272
	c1.823,0.416,3.87,0.326,5.488-0.717c1.622-1.047,2.627-2.431,3.272-4.256c2.5-7.066,0.416-15.346-4.646-20.739
	c-5.069-5.403-13.179-7.465-20.274-5.612C1435.188,1500.672,1433.544,1501.971,1432.651,1503.496z"/>
<path style="fill:#D6D6D6;" d="M1055.375,1661.233c-3.721,0.097-7.297,3.206-7.121,7.121c0.169,3.776,3.132,7.226,7.121,7.122
	l0.968,0.049c0.575,0.119,1.136,0.282,1.691,0.469c0.473,0.242,0.933,0.507,1.377,0.798l1.112,1.095l0.622,1.051
	c0.166,0.492,0.301,0.994,0.409,1.503c0.027,0.516,0.027,1.032,0,1.548c-0.127,0.614-0.293,1.219-0.498,1.811
	c-0.351,0.662-0.688,1.328-1.148,1.93l0.872-1.129c-1.199,1.497-2.043,2.969-2.043,4.97c0,1.747,0.775,3.833,2.085,5.035
	c1.357,1.247,3.139,2.171,5.036,2.086c1.769-0.079,3.872-0.645,5.035-2.086c1.611-1.997,2.675-3.736,3.644-6.101
	c0.737-1.8,1.044-3.611,1.259-5.545c0.423-3.793-0.466-7.599-2.148-10.993C1070.358,1665.328,1062.7,1661.041,1055.375,1661.233z"/>
<path style="fill:#D6D6D6;" d="M682.974,1503.815c-2.406-3.455-5.539-5.776-9.476-7.232c-3.353-1.24-7.391-1.274-10.802-0.264
	c-1.74,0.515-3.334,1.698-4.257,3.273c-0.893,1.527-1.272,3.777-0.718,5.488c1.171,3.614,4.934,6.107,8.76,4.974l0.486-0.105
	l1.248,0.01l1.075,0.297l0.965,0.559l0.6,0.596l0.327,0.556l0.297,1.1l-0.007,1.126l-0.32,1.153
	c-0.256,0.472-0.49,0.958-0.815,1.396l0.668-0.865l-0.007,0.023c-1.149,1.431-1.954,2.916-1.954,4.834
	c0,1.747,0.776,3.833,2.085,5.035c1.357,1.246,3.14,2.171,5.036,2.086c1.784-0.08,3.848-0.653,5.035-2.086
	c1.666-2.012,2.702-3.763,3.628-6.21c0.641-1.695,0.888-3.589,0.977-5.384C685.979,1510.688,684.982,1506.698,682.974,1503.815z"/>
<path style="fill:#D6D6D6;" d="M508.872,1123.984c0.456,0.404,0.888,0.833,1.295,1.287c0.342,0.511,0.651,1.043,0.928,1.592
	c0.207,0.621,0.369,1.255,0.498,1.895c0.04,0.671,0.038,1.341-0.003,2.011c-0.146,0.722-0.316,1.435-0.56,2.133l-0.57,1.107
	c-1.955,3.177-0.792,7.976,2.555,9.745c3.479,1.838,7.656,0.836,9.744-2.555c4.094-6.648,4.24-15.464,0.364-22.242
	c-3.787-6.623-11.037-10.691-18.591-10.928c-3.727-0.116-7.29,3.359-7.121,7.121c0.177,3.959,3.128,6.996,7.121,7.122l0.301,0.024
	c0.733,0.138,1.442,0.353,2.147,0.591C507.634,1123.211,508.266,1123.574,508.872,1123.984z"/>
<path style="fill:#D6D6D6;" d="M664.463,718.145c-3.727-0.17-7.289,3.396-7.122,7.122c0.18,4.002,3.129,6.94,7.122,7.121
	l0.229,0.019c0.511,0.096,1.025,0.181,1.525,0.332l0.67,0.228c0.645,0.322,1.244,0.701,1.853,1.082l0.536,0.477l1.043,1.199
	l0.632,0.981l0.47,0.95l-0.187-0.319c0.15,0.463,0.223,0.942,0.324,1.415c0.071,0.911,0.09,1.819,0.013,2.73l-0.082,0.438
	l-0.306,1.064l-0.143,0.389l-0.414,0.767c-0.304,0.523-1.75,2.357-0.258,0.522c-1.229,1.511-2.085,3.013-2.085,5.035
	c0,1.747,0.775,3.833,2.085,5.036c2.603,2.389,7.561,3.086,10.071,0c2.587-3.18,4.517-6.735,5.123-10.841
	c0.703-4.773,0.116-9.195-1.918-13.585C680.26,723.004,672.308,718.501,664.463,718.145z"/>
<path style="fill:#FFFFFF;" d="M1431.673,667.161c-66.376-54.732-142.052-93.202-218.305-114.958
	c-62.212-14.926-126.521-20.678-190.586-18.56c-85.765,8.937-161.572,43.221-211.916,104.276
	c-127.417,154.525-70.357,440.477,132.794,607.989c203.151,167.512,519.021,193.447,646.438,38.921
	S1634.825,834.673,1431.673,667.161z"/>
<path style="fill:#172945;" d="M1534.293,948.007c-5.511-13.584-21.134-20.189-34.718-14.678l-395,160.253
	c-4.758-5.735-10.626-10.505-17.263-14.021V757.925c0-13.822-11.309-25.132-25.132-25.132h-3.043
	c-13.823,0-25.131,11.31-25.131,25.132v321.636c-18.067,9.571-30.388,28.545-30.388,50.415c0,31.503,25.538,57.041,57.041,57.041
	c25.642,0,47.327-16.922,54.509-40.207l404.445-164.085C1533.198,977.214,1539.803,961.591,1534.293,948.007z"/>
<path style="fill:#004D70;" d="M1050.15,1084.043c-8.272,8.272-3.056,26.899,11.649,41.605
	c14.706,14.706,33.333,19.921,41.605,11.649c8.272-8.272,3.056-26.899-11.649-41.604
	C1077.049,1080.987,1058.422,1075.771,1050.15,1084.043z"/>
<path style="fill:#321C27;" d="M1055.303,551.447c-16.122,0-29.191,13.069-29.191,29.191c0,16.122,13.069,29.191,29.191,29.191
	c16.122,0,29.191-13.069,29.191-29.191C1084.494,564.516,1071.424,551.447,1055.303,551.447z"/>
<path style="fill:#321C27;" d="M1604.933,1101.077c-16.122,0-29.191,13.069-29.191,29.191c0,16.122,13.069,29.191,29.191,29.191
	s29.191-13.069,29.191-29.191C1634.124,1114.146,1621.055,1101.077,1604.933,1101.077z"/>
<path style="fill:#321C27;" d="M1464.591,720.98c-11.4-11.4-29.883-11.4-41.283,0s-11.4,29.883,0,41.283
	c11.4,11.399,29.882,11.399,41.283,0C1475.991,750.863,1475.991,732.38,1464.591,720.98z"/>
<path style="fill:#004D70;" d="M1130.881,1108.477c124.696-55.109,251.169-106.137,379.174-153.047
	c8.536-3.128,4.847-16.899-3.787-13.734c-129.161,47.333-256.756,98.876-382.577,154.482
	C1115.326,1099.876,1122.565,1112.151,1130.881,1108.477z"/>
<path style="fill:#004D70;" d="M1078.337,1058.498l2.54-300.807c0.077-9.167-14.165-9.176-14.243,0l-2.54,300.807
	C1064.017,1067.665,1078.26,1067.674,1078.337,1058.498z"/>
<path style="fill:#D6D6D6;" d="M1056.092,574.641l-0.423-0.056c0.514,0.076,0.997,0.256,1.49,0.407l0.834,0.483l0.96,0.965
	l0.694,1.204l0.309,1.138l0.002,0.818l-0.241,0.985c-0.595,1.664-0.149,4.007,0.718,5.488c0.864,1.477,2.558,2.886,4.256,3.272
	c1.823,0.416,3.869,0.326,5.487-0.718c1.625-1.047,2.62-2.431,3.273-4.256c1.768-4.947,0.681-11.054-2.251-15.347
	c-1.669-2.443-3.635-4.477-6.17-6.039c-2.546-1.569-5.453-2.342-8.423-2.472c-1.775-0.078-3.799,0.849-5.036,2.085
	c-1.235,1.235-2.165,3.262-2.086,5.036C1049.656,571.45,1052.381,574.231,1056.092,574.641z"/>
<path style="fill:#D6D6D6;" d="M1437.666,734.942c1.635,0.863,3.437,1.148,5.255,0.731l1.009,0.01l0.745,0.208l1.173,0.69
	l0.873,0.874l0.596,1.001l0.235,0.858l-0.001,1.32l0.113-0.84c-0.304,1.772-0.198,3.546,0.737,5.144
	c0.864,1.477,2.558,2.886,4.256,3.272c1.823,0.416,3.87,0.326,5.488-0.717c1.5-0.967,2.904-2.448,3.273-4.256
	c0.543-2.668,0.569-5.158-0.066-7.818c-0.297-1.246-0.846-2.459-1.379-3.61c-0.311-0.674-0.681-1.317-1.112-1.92
	c-1.606-2.253-3.266-3.915-5.532-5.511c-0.607-0.427-1.254-0.801-1.93-1.107c-1.164-0.528-2.364-1.078-3.616-1.381
	c-2.779-0.675-5.644-0.695-8.415,0.038c-1.721,0.454-3.361,1.742-4.257,3.272c-0.892,1.526-1.272,3.776-0.718,5.488
	C1434.951,732.409,1436.019,734.071,1437.666,734.942z"/>
<path style="fill:#D6D6D6;" d="M1603.058,1128.594c1.055,0.171,2.057,0.513,3.059,0.864c0.937,0.452,1.83,0.975,2.683,1.569
	c0.786,0.678,1.511,1.414,2.184,2.204c0.547,0.799,1.029,1.632,1.452,2.504l0.096,0.33c-1.341,1.318-2.196,3.122-2.111,5.019
	c0.176,3.929,3.128,7.034,7.121,7.121c5.998,0.133,9.758-5.452,9.706-10.972c-0.033-3.666-1.53-7.534-3.464-10.598
	c-3.725-5.9-9.955-10.642-16.94-11.776c-1.949-0.316-3.72-0.316-5.488,0.718c-1.477,0.864-2.886,2.558-3.273,4.256
	c-0.415,1.823-0.325,3.87,0.718,5.488C1599.744,1126.783,1601.265,1128.303,1603.058,1128.594z"/>
<path style="fill:#321C27;" d="M425.438,305.453c12.214,0,14.603-15.241,7.172-21.225c-1.812-1.459-4.189-2.386-7.172-2.386
	c-10.986,0-13.998,12.317-9.092,19.154C418.223,303.613,421.224,305.453,425.438,305.453z"/>
<path style="fill:#321C27;" d="M989.294,217.088c6.886,0,10.623-4.855,11.27-10.16c0.78-6.398-2.95-13.451-11.27-13.451
	c-8.306,0-12.045,7.053-11.271,13.451C978.663,212.232,982.396,217.088,989.294,217.088z"/>
<path style="fill:#321C27;" d="M1290.463,448.971c0.561,2,1.573,3.736,3.036,5.21c0.796,0.615,1.593,1.23,2.389,1.846
	c1.841,1.068,3.828,1.605,5.958,1.612c0.624,0,1.247,0,1.87,0c1.626,0.061,3.142-0.278,4.549-1.017c1.464-0.476,2.73-1.29,3.8-2.441
	c0.764-0.71,1.325-1.54,1.791-2.424c0.236-0.447,0.49-0.884,0.65-1.375c0.739-1.408,1.078-2.924,1.017-4.548
	c-0.141-1.046-0.281-2.092-0.422-3.139c-0.561-2-1.573-3.736-3.036-5.209c-0.796-0.616-1.593-1.231-2.389-1.846
	c-1.841-1.068-3.828-1.605-5.959-1.612c-0.623,0-1.246,0-1.87,0c-1.625-0.061-3.142,0.277-4.548,1.017
	c-1.464,0.476-2.73,1.29-3.799,2.441c-1.151,1.069-1.965,2.335-2.441,3.799c-0.357,0.679-0.61,1.386-0.78,2.115
	c-0.183,0.783-0.268,1.592-0.236,2.433C1290.181,446.879,1290.322,447.926,1290.463,448.971z"/>
<path style="fill:#321C27;" d="M1472.34,223.055c1.29,0.492,2.722,0.812,4.367,0.812c2.281,0,4.177-0.578,5.774-1.483
	c3.486-1.975,5.343-5.681,5.566-9.543c0.355-6.152-3.395-12.586-11.34-12.586c-8.603,0-12.332,7.568-11.195,14.136
	C1466.167,218.168,1468.458,221.572,1472.34,223.055z"/>
<path style="fill:#321C27;" d="M1204.311,1716.339c-122.521,26.957-252.908,7.358-369.78-34.698
	c-102.923-37.037-200.827-97.91-265.289-187.941c-69.774-97.453-105.6-218.968-108.327-338.197
	c-2.266-99.082,18.779-197.553,61.828-286.481c6.314-13.042,13.085-25.884,20.341-38.487
	c52.708-91.543,128.236-169.906,218.407-225.045c11.175-6.833,22.569-13.294,34.147-19.42c4.737-2.506,6.277-6.662,5.755-10.682
	c-0.957-7.383-8.973-14.307-17.672-9.705c-97.32,51.497-180.489,128.391-240.927,220.309
	c-63.849,97.103-100.057,210.404-105.057,326.481c-5.329,123.704,24.246,250.219,87.543,356.959
	c30.232,50.982,69.323,95.947,115.664,132.892c44.875,35.776,94.857,64.238,147.663,86.552
	c55.654,23.517,114.068,40.625,173.521,51.341c65.615,11.825,132.937,15.861,199.216,7.364c16.538-2.12,32.958-4.89,49.244-8.473
	c8.973-1.974,10.186-11.067,6.487-17.236c-0.011-0.019-0.02-0.038-0.031-0.056
	C1214.62,1717.817,1210.143,1715.056,1204.311,1716.339z"/>
<path style="fill:#321C27;" d="M1263.44,1702.656c-0.935-0.935-1.87-1.87-2.805-2.805c-1.069-1.151-2.336-1.965-3.799-2.441
	c-1.407-0.739-2.923-1.078-4.548-1.017c-1.625-0.061-3.142,0.277-4.548,1.017c-1.463,0.476-2.73,1.29-3.799,2.441
	c-0.616,0.796-1.231,1.593-1.846,2.389c-1.068,1.841-1.605,3.828-1.612,5.959c0.141,1.046,0.281,2.092,0.422,3.138
	c0.327,1.165,0.853,2.214,1.486,3.2c0.019,0.03,0.046,0.055,0.065,0.084c0.441,0.673,0.9,1.337,1.485,1.925
	c0.935,0.935,1.87,1.87,2.805,2.805c1.069,1.151,2.335,1.965,3.799,2.441c1.407,0.739,2.923,1.078,4.549,1.017
	c1.625,0.061,3.141-0.278,4.548-1.017c1.463-0.476,2.73-1.29,3.799-2.441c0.615-0.797,1.231-1.593,1.846-2.389
	c1.068-1.842,1.605-3.828,1.612-5.959c-0.141-1.046-0.281-2.092-0.422-3.138c-0.113-0.404-0.326-0.749-0.476-1.131
	c-0.005-0.011-0.01-0.022-0.014-0.033C1265.393,1705.204,1264.599,1703.823,1263.44,1702.656z"/>
<path style="fill:#321C27;" d="M831.498,569.849c7.701,0,11.487-6.065,11.384-12.048c-0.1-5.821-3.88-11.564-11.384-11.564
	c-11.229,0-14.146,12.881-8.773,19.61C824.621,568.224,827.528,569.849,831.498,569.849z"/>
<path style="fill:#321C27;" d="M1667.417,979.71c-8.863-31.785-20.784-62.609-34.065-92.787
	c-13.395-30.44-28.008-60.469-44.562-89.325c-57.584-100.386-146.143-178.741-251.005-227.209
	c-116.251-53.733-247.073-69.66-373.82-56.306c-16.348,1.722-32.647,3.926-48.88,6.516c-6.301,1.005-9.801,8.862-8.245,14.522
	c0.203,0.738,0.48,1.405,0.786,2.042c2.476,5.163,8.111,7.1,13.736,6.203c33.49-5.343,67.417-8.599,101.418-9.723
	c64.065-2.118,128.374,3.634,190.586,18.56c26.688,6.403,53.01,14.395,78.727,24.291c100.735,38.758,192.306,106.155,253.2,195.896
	c18.112,26.691,33.656,55.037,47.865,83.969c14.078,28.666,27.179,57.857,38.065,87.895
	c20.558,56.724,31.796,116.138,32.924,176.478c2.165,115.817-31.375,230.671-94.593,327.63
	c-8.445,12.953-17.444,25.524-26.85,37.779c-55.835,72.747-127.907,132.868-208.825,175.909
	c-11.482,6.107-23.147,11.856-34.963,17.29c-5.792,2.664-7.229,11.034-4.235,16.152c0.023,0.04,0.054,0.068,0.078,0.107
	c0.012,0.02,0.027,0.035,0.04,0.055c3.51,5.787,10.278,6.72,16.034,4.073c101.166-46.524,190.236-118.261,256.823-207.53
	c71.314-95.605,113.255-211.47,119.419-330.619C1690.237,1100.511,1683.851,1038.644,1667.417,979.71z"/>
<path style="fill:#321C27;" d="M1698.521,939.216c-33.418-123.379-102.035-236.848-195.245-324.27
	c-26.39-24.751-54.792-47.377-84.73-67.689c-7.168-4.863-14.069-0.347-16.401,6.012c-1.77,4.826-0.917,10.711,4.485,14.375
	c102.016,69.213,183.32,167.37,234.063,279.595c14.344,31.723,25.961,64.656,35.061,98.253c2.251,8.31,10.548,9.895,16.588,7.036
	C1696.949,950.346,1700.245,945.582,1698.521,939.216z"/>
<path style="fill:#321C27;" d="M424.095,1252.016c-13.914-77.771-13.972-158.518,0.261-236.247
	c8.146-44.487,20.906-88.057,38.128-129.877c2.429-5.898-2.63-12.979-8.245-14.522c-6.778-1.862-12.084,2.325-14.522,8.245
	c-31.221,75.816-47.54,157.51-49.364,239.435c-1.822,81.855,10.856,164.398,37.73,241.76
	c15.279,43.985,35.061,86.417,59.219,126.229c7.872,12.972,28.298,1.12,20.388-11.917
	C466.157,1406.681,438.186,1330.781,424.095,1252.016z"/>
<path style="fill:#321C27;" d="M469.62,850.375c15.193,0,15.217-23.611,0-23.611C454.427,826.764,454.402,850.375,469.62,850.375z"
	/>
<path style="fill:#321C27;" d="M1709.475,987.18c0.935-0.935,1.87-1.87,2.805-2.805c1.151-1.07,1.965-2.336,2.441-3.8
	c0.739-1.407,1.078-2.923,1.017-4.549c0.061-1.625-0.278-3.142-1.017-4.548c-0.477-1.464-1.29-2.731-2.441-3.8
	c-0.796-0.615-1.593-1.231-2.389-1.846c-1.841-1.068-3.828-1.605-5.958-1.611c-1.046,0.14-2.092,0.281-3.139,0.421
	c-1.8,0.505-3.355,1.429-4.728,2.666c-0.153,0.137-0.334,0.224-0.481,0.371c-0.935,0.935-1.87,1.87-2.805,2.805
	c-1.151,1.069-1.965,2.336-2.441,3.799c-0.739,1.407-1.078,2.923-1.017,4.549c-0.061,1.625,0.278,3.142,1.017,4.548
	c0.476,1.464,1.29,2.73,2.441,3.799c0.796,0.616,1.592,1.231,2.389,1.846c1.841,1.068,3.828,1.605,5.958,1.612
	c0.053-0.008,0.107-0.014,0.161-0.022c0.992-0.133,1.985-0.266,2.978-0.4C1706.266,989.655,1708.003,988.643,1709.475,987.18z"/>
<path style="fill:#321C27;" d="M1035.839,1233.659c18.297,3.324,36.929,2.626,54.894-2.229c14.652-3.96,8.434-26.743-6.277-22.768
	c-30.691,8.295-66.479,2.057-88.724-21.891c-20.426-21.99-24.222-57.586-6.715-82.257c3.692-5.203,0.924-13.134-4.235-16.153
	c-5.918-3.461-12.452-0.979-16.152,4.236c-18.201,25.649-17.984,59.854-5.211,87.725
	C976.549,1208.97,1005.322,1228.115,1035.839,1233.659z"/>
</svg>
